<svg width="24.000000" height="24.000000" viewBox="0 0 24 24" fill="none" xmlns="http://www.w3.org/2000/svg" xmlns:xlink="http://www.w3.org/1999/xlink">
	<desc>
			Created with Pixso.
	</desc>
	<defs>
		<clipPath id="clip1_54">
			<rect id="Communication / Phone" rx="0.000000" width="23.000000" height="23.000000" transform="translate(0.500000 0.500000)" fill="white" fill-opacity="0"/>
		</clipPath>
	</defs>
	<g clip-path="url(#clip1_54)">
		<path id="Vector" d="M6.96 20.56C13.72 19.04 19.04 13.72 20.56 6.96C21.04 4.81 19.2 3 17 3L15.25 3C14.69 3 14.25 3.44 14.2 3.99C14.11 5.08 13.85 6.13 13.47 7.11L15.18 8.82C13.85 11.6 11.6 13.85 8.82 15.18L7.11 13.47C6.13 13.85 5.08 14.11 3.99 14.2C3.44 14.25 3 14.69 3 15.25L3 17C3 19.2 4.81 21.04 6.96 20.56Z" fill="#889CB9" fill-opacity="1.000000" fill-rule="evenodd"/>
	</g>
</svg>
