<svg width="21.000000" height="17.477539" viewBox="0 0 21 17.4775" fill="none" xmlns="http://www.w3.org/2000/svg" xmlns:xlink="http://www.w3.org/1999/xlink">
	<desc>
			Created with Pixso.
	</desc>
	<defs/>
	<path id="Shape" d="M0 2.52637C0 2.52637 8.79291 7.5127 10.4996 7.5127C12.2884 7.5127 20.986 2.62158 20.986 2.62158L21 1.7478C21 0.782959 20.217 0 19.2496 0L1.74948 0C0.78299 0 0 0.782959 0 1.7478L0 2.52637ZM20.986 5.24316C20.986 5.24316 12.3705 9.91577 10.4996 9.91577C8.79297 9.91577 0.0137939 5.24365 0.0139771 5.24316L0 15.7297C0 16.6943 0.783875 17.4775 1.74948 17.4775L19.2496 17.4775C20.217 17.4775 21 16.6943 21 15.7297L20.986 5.24316Z" clip-rule="evenodd" fill="#889CB9" fill-opacity="1.000000" fill-rule="evenodd"/>
</svg>
