<svg width="20.799988" height="20.800049" viewBox="0 0 20.8 20.8" fill="none" xmlns="http://www.w3.org/2000/svg" xmlns:xlink="http://www.w3.org/1999/xlink">
	<desc>
			Created with Pixso.
	</desc>
	<defs/>
	<path id="Shape" d="M10.4 4.02C12.35 4.02 13.67 4.86 14.42 5.56L17.35 2.7C15.55 1.02 13.2 0 10.4 0C6.33 0 2.81 2.33 1.1 5.73L4.47 8.34C5.31 5.83 7.64 4.02 10.4 4.02Z" fill="#FFFFFF" fill-opacity="1.000000" fill-rule="nonzero"/>
	<path id="Shape" d="M20.38 10.63C20.38 9.77 20.31 9.15 20.16 8.5L10.4 8.5L10.4 12.36L16.13 12.36C16.01 13.32 15.39 14.76 14 15.73L17.28 18.28C19.25 16.46 20.38 13.79 20.38 10.63Z" fill="#FFFFFF" fill-opacity="1.000000" fill-rule="nonzero"/>
	<path id="Shape" d="M4.48 12.45C4.26 11.8 4.13 11.11 4.13 10.39C4.13 9.68 4.26 8.98 4.47 8.34L1.1 5.73C0.4 7.14 0 8.72 0 10.39C0 12.07 0.4 13.65 1.1 15.06L4.48 12.45Z" fill="#FFFFFF" fill-opacity="1.000000" fill-rule="nonzero"/>
	<path id="Shape" d="M10.4 20.79C13.2 20.79 15.56 19.87 17.28 18.28L14 15.73C13.12 16.35 11.94 16.77 10.4 16.77C7.64 16.77 5.31 14.96 4.48 12.45L1.12 15.06C2.83 18.46 6.33 20.79 10.4 20.79Z" fill="#FFFFFF" fill-opacity="1.000000" fill-rule="nonzero"/>
</svg>
