<svg width="25.600006" height="14.335938" viewBox="0 0 25.6 14.3359" fill="none" xmlns="http://www.w3.org/2000/svg" xmlns:xlink="http://www.w3.org/1999/xlink">
	<desc>
			Created with Pixso.
	</desc>
	<defs/>
	<path id="Shape" d="M14.05 14.27C14.05 14.27 14.51 14.22 14.75 13.97C14.97 13.74 14.96 13.31 14.96 13.31C14.96 13.31 14.93 11.3 15.88 11C16.82 10.71 18.03 12.95 19.31 13.81C20.27 14.46 21.01 14.32 21.01 14.32L24.43 14.27C24.43 14.27 26.21 14.16 25.37 12.78C25.3 12.67 24.87 11.76 22.83 9.9C20.68 7.94 20.97 8.26 23.55 4.88C25.12 2.82 25.75 1.57 25.55 1.03C25.37 0.52 24.21 0.65 24.21 0.65L20.36 0.68C20.36 0.68 20.08 0.64 19.87 0.76C19.66 0.88 19.52 1.17 19.52 1.17C19.52 1.17 18.92 2.76 18.1 4.11C16.39 6.97 15.7 7.12 15.42 6.94C14.77 6.53 14.93 5.28 14.93 4.4C14.93 1.63 15.36 0.47 14.1 0.17C13.68 0.07 13.38 0.01 12.31 0C10.93 -0.02 9.77 0 9.11 0.32C8.67 0.53 8.33 1 8.54 1.03C8.8 1.06 9.37 1.18 9.68 1.59C10.07 2.11 10.06 3.3 10.06 3.3C10.06 3.3 10.28 6.56 9.53 6.96C9.01 7.24 8.3 6.67 6.77 4.08C5.99 2.75 5.4 1.28 5.4 1.28C5.4 1.28 5.28 1.01 5.08 0.86C4.83 0.68 4.49 0.63 4.49 0.63L0.83 0.65C0.83 0.65 0.28 0.67 0.08 0.9C-0.1 1.11 0.06 1.54 0.06 1.54C0.06 1.54 2.93 8.12 6.17 11.43C9.14 14.47 12.52 14.27 12.52 14.27L14.05 14.27Z" fill="#FFFFFF" fill-opacity="1.000000" fill-rule="nonzero"/>
</svg>
